<svg width="25" height="25" viewBox="0 0 25 25" fill="none" xmlns="http://www.w3.org/2000/svg">
<path d="M0 20.1389C0 21.2891 0.93316 22.2223 2.08333 22.2223H22.9167C24.0668 22.2223 25 21.2891 25 20.1389V12.5001H0V20.1389ZM8.33333 17.1876C8.33333 16.9011 8.56771 16.6667 8.85417 16.6667H14.7569C15.0434 16.6667 15.2778 16.9011 15.2778 17.1876V18.9237C15.2778 19.2101 15.0434 19.4445 14.7569 19.4445H8.85417C8.56771 19.4445 8.33333 19.2101 8.33333 18.9237V17.1876ZM2.77778 17.1876C2.77778 16.9011 3.01215 16.6667 3.29861 16.6667H6.42361C6.71007 16.6667 6.94444 16.9011 6.94444 17.1876V18.9237C6.94444 19.2101 6.71007 19.4445 6.42361 19.4445H3.29861C3.01215 19.4445 2.77778 19.2101 2.77778 18.9237V17.1876ZM25 4.86117V6.9445H0V4.86117C0 3.71099 0.93316 2.77783 2.08333 2.77783H22.9167C24.0668 2.77783 25 3.71099 25 4.86117Z" fill="#055FEA"/>
</svg>
