<svg width="25" height="25" viewBox="0 0 25 25" fill="none" xmlns="http://www.w3.org/2000/svg">
<g clip-path="url(#clip0_1_171)">
<path d="M22.0405 6.53516H3.42725C2.99561 6.53516 2.646 6.18555 2.646 5.75391C2.646 5.32227 2.99561 4.97266 3.42725 4.97266H22.1772C22.6089 4.97266 22.9585 4.62305 22.9585 4.19141C22.9585 2.89697 21.9092 1.84766 20.6147 1.84766H2.646C0.919922 1.84766 -0.479004 3.24658 -0.479004 4.97266V20.5977C-0.479004 22.3237 0.919922 23.7227 2.646 23.7227H22.0405C23.4087 23.7227 24.521 22.6714 24.521 21.3789V8.87891C24.521 7.58643 23.4087 6.53516 22.0405 6.53516ZM19.8335 16.6914C18.9707 16.6914 18.271 15.9917 18.271 15.1289C18.271 14.2661 18.9707 13.5664 19.8335 13.5664C20.6963 13.5664 21.396 14.2661 21.396 15.1289C21.396 15.9917 20.6963 16.6914 19.8335 16.6914Z" fill="#055FEA"/>
</g>
<defs>
<clipPath id="clip0_1_171">
<rect width="25" height="25" fill="white"/>
</clipPath>
</defs>
</svg>
